<svg fill="#ffffff" xmlns="http://www.w3.org/2000/svg" shape-rendering="geometricPrecision" text-rendering="geometricPrecision" image-rendering="optimizeQuality" fill-rule="evenodd" clip-rule="evenodd" viewBox="-50 0 512 511.91"><path fill-rule="nonzero" d="M227.59 511.91h-34.5c-35.29 0-67.38-14.46-90.66-37.72l-.07-.07c-23.25-23.27-37.68-55.36-37.68-90.63V192.93c0-35.3 14.44-67.4 37.7-90.67 23.31-23.3 55.4-37.74 90.71-37.74h34.5c35.3 0 67.39 14.44 90.66 37.7 23.3 23.31 37.75 55.41 37.75 90.71v190.56c0 35.29-14.46 67.4-37.73 90.68-23.24 23.28-55.36 37.74-90.68 37.74zm109.45-245.53H83.63v117.11c0 30.12 12.31 57.49 32.12 77.29 19.85 19.86 47.22 32.17 77.34 32.17h34.5c30.08 0 57.45-12.33 77.29-32.17 19.85-19.8 32.16-47.17 32.16-77.29V266.38zM83.63 247.42h117.23v-33.43c-9.87-3.84-16.97-13.51-16.97-24.66v-38.27c0-11.16 7.07-20.81 16.97-24.66V83.48h-7.77c-30.1 0-57.48 12.31-77.32 32.13-19.82 19.84-32.14 47.22-32.14 77.32v54.49zm136.19 0h117.22v-54.49c0-30.1-12.31-57.48-32.14-77.32-19.84-19.82-47.21-32.13-77.31-32.13h-7.77v42.91c9.9 3.84 16.96 13.47 16.96 24.67v38.27c0 11.2-7.09 20.84-16.96 24.67v33.42zM88.3 67.39 49.44 28.54c-5.01-5.02-13.17-5.01-18.19 0-5.01 5.02-5.01 13.16 0 18.19l38.38 38.36a127.65 127.65 0 0 1 18.67-17.7zm58.5-24.95L129.81 6.69c-3.4-6.22-11.18-8.51-17.4-5.12-6.22 3.39-8.51 11.18-5.11 17.4l15.18 29.61c7.78-2.81 15.91-4.89 24.32-6.14zm-97.19 74.45-30.64-16.61c-6.22-3.4-14.01-1.11-17.4 5.1-3.39 6.21-1.11 14.02 5.1 17.4l35.21 18.06a125.23 125.23 0 0 1 7.73-23.95z"/></svg>
