<svg fill="#ffffff" xmlns="http://www.w3.org/2000/svg" xmlns:xlink="http://www.w3.org/1999/xlink" version="1.1" width="1000" height="1000" viewBox="0 0 1000 1000" xml:space="preserve">
<desc>Created with Fabric.js 3.5.0</desc>
<defs>
</defs>
<g transform="matrix(-1.7742 0 0 1.7742 499.9972 499.9957)" id="524931">
<path style="stroke: none; stroke-width: 1; stroke-dasharray: none; stroke-linecap: butt; stroke-dashoffset: 0; stroke-linejoin: miter; stroke-miterlimit: 4; is-custom-font: none; font-file-url: none; fill-rule: nonzero; opacity: 1;" vector-effect="non-scaling-stroke" transform=" translate(-166.5, -256.195)" d="M 146.68 492.45 h 39.64 c 34.84 0 66.53 -14.27 89.51 -37.24 c 22.97 -22.97 37.23 -54.66 37.23 -89.51 V 230.17 H 19.94 V 365.7 c 0 34.85 14.26 66.54 37.23 89.51 s 54.67 37.24 89.51 37.24 z m 166.38 -282.22 v -63.55 c 0 -34.84 -14.26 -66.53 -37.23 -89.51 c -22.98 -22.97 -54.67 -37.23 -89.51 -37.23 h -9.85 v 55.21 c 11.19 4.11 19.24 14.92 19.24 27.43 v 42.27 c 0 12.51 -8.07 23.31 -19.24 27.43 v 37.95 h 136.59 z m -156.53 0 v -37.95 c -11.16 -4.1 -19.24 -14.87 -19.24 -27.43 v -42.27 c 0 -12.56 8.05 -23.34 19.24 -27.44 v -55.2 h -9.85 c -34.84 0 -66.54 14.26 -89.51 37.23 c -22.97 22.98 -37.23 54.67 -37.23 89.51 v 63.55 h 136.59 z M 0 146.68 c 0 -40.34 16.5 -77.03 43.08 -103.6 C 69.65 16.5 106.34 0 146.68 0 h 39.64 c 40.34 0 77.03 16.5 103.6 43.08 C 316.5 69.65 333 106.34 333 146.68 V 365.7 c 0 40.35 -16.5 77.03 -43.08 103.61 c -26.57 26.58 -63.26 43.08 -103.6 43.08 h -39.64 c -40.34 0 -77.03 -16.5 -103.6 -43.08 C 16.5 442.73 0 406.05 0 365.7 V 146.68 z" stroke-linecap="round"/>
</g>
<g transform="matrix(0.6447 -0.384 0.214 0.3592 592.2297 174.2241)" id="20781">
<path style="stroke: none; stroke-width: 1; stroke-dasharray: none; stroke-linecap: butt; stroke-dashoffset: 0; stroke-linejoin: miter; stroke-miterlimit: 4; is-custom-font: none; font-file-url: none; fill-rule: nonzero; opacity: 1;" vector-effect="non-scaling-stroke" transform=" translate(-43.5, -25)" d="M 127 0 H 0 V 120 H 87 V 0 Z" stroke-linecap="round"/>
</g>
<g transform="matrix(0.7504 0 0 0.4181 610.8012 267.0813)" id="849418">
<path style="stroke: none; stroke-width: 1; stroke-dasharray: none; stroke-linecap: butt; stroke-dashoffset: 0; stroke-linejoin: miter; stroke-miterlimit: 4; is-custom-font: none; font-file-url: none; fill-rule: nonzero; opacity: 1;" vector-effect="non-scaling-stroke" transform=" translate(-43.5, -25)" d="M 127 0 H 0 V 120 H 87 V 0 Z" stroke-linecap="round"/>
</g>
<g transform="matrix(0.6646 0.3484 -0.1941 0.3703 598.523 353.8969)" id="920077">
<path style="stroke: none; stroke-width: 1; stroke-dasharray: none; stroke-linecap: butt; stroke-dashoffset: 0; stroke-linejoin: miter; stroke-miterlimit: 4; is-custom-font: none; font-file-url: none; fill-rule: nonzero; opacity: 1;" vector-effect="non-scaling-stroke" transform=" translate(-43.5, -25)" d="M 127 0 H 0 V 120 H 87 V 0 Z" stroke-linecap="round"/>
</g>
<g transform="matrix(0.7504 0 0 0.4181 396.3979 267.0813)" id="940102">
<path style="stroke: none; stroke-width: 1; stroke-dasharray: none; stroke-linecap: butt; stroke-dashoffset: 0; stroke-linejoin: miter; stroke-miterlimit: 4; is-custom-font: none; font-file-url: none; fill-rule: nonzero; opacity: 1;" vector-effect="non-scaling-stroke" transform=" translate(-43.5, -25)" d="M 127 0 H 0 V 120 H 87 V 0 Z" stroke-linecap="round"/>
</g>
<g transform="matrix(0.6088 -0.4387 0.2445 0.3392 401.678 357.0718)" id="33058">
<path style="stroke: none; stroke-width: 2; stroke-dasharray: none; stroke-linecap: butt; stroke-dashoffset: 0; stroke-linejoin: miter; stroke-miterlimit: 4; is-custom-font: none; font-file-url: none; fill-rule: nonzero; opacity: 1;" vector-effect="non-scaling-stroke" transform=" translate(-43.5, -25)" d="M 127 0 H 0 V 120 H 87 V 0 Z" stroke-linecap="round"/>
</g>
<g transform="matrix(0.6098 0.4373 -0.2437 0.3398 404.1639 176.0675)" id="786883">
<path style="stroke: none; stroke-width: 2; stroke-dasharray: none; stroke-linecap: butt; stroke-dashoffset: 0; stroke-linejoin: miter; stroke-miterlimit: 4; is-custom-font: none; font-file-url: none; fill-rule: nonzero; opacity: 1;" vector-effect="non-scaling-stroke" transform=" translate(-43.5, -25)" d="M 127 0 H 0 V 120 H 87 V 0 Z" stroke-linecap="round"/>
</g>
</svg>
