<svg fill="#ffffff" xmlns="http://www.w3.org/2000/svg" shape-rendering="geometricPrecision" text-rendering="geometricPrecision" image-rendering="optimizeQuality" fill-rule="evenodd" clip-rule="evenodd" viewBox="-110 0 500 512.47"><path fill-rule="nonzero" d="M148.59 65.11c0 5.01-4.07 9.08-9.08 9.08s-9.08-4.07-9.08-9.08v-33.4l-9.48 9.93c-3.45 3.62-9.19 3.76-12.8.32-3.62-3.44-3.77-9.18-.33-12.8l24.71-25.88A9.05 9.05 0 0 1 139.51 0c2.8 0 5.31 1.27 6.98 3.28l24.69 25.88c3.44 3.62 3.29 9.36-.33 12.8-3.61 3.44-9.35 3.3-12.8-.32l-9.46-9.93v33.4zm112.25 212.22H18.16v112.16c0 28.84 11.78 55.06 30.76 74.02 19.01 19.02 45.22 30.81 74.06 30.81h33.04c28.81 0 55.02-11.8 74.02-30.81 19.02-18.96 30.8-45.18 30.8-74.02V277.33zM18.16 259.17h112.26v-32.01c-9.45-3.68-16.24-12.93-16.24-23.61V166.9c0-10.69 6.76-19.94 16.24-23.62v-41.11h-7.44c-28.83 0-55.05 11.79-74.05 30.77-18.98 19-30.77 45.23-30.77 74.05v52.18zm130.42 0h112.26v-52.18c0-28.82-11.79-55.05-30.77-74.05-19-18.98-45.22-30.77-74.05-30.77h-7.44v41.1c9.48 3.67 16.24 12.9 16.24 23.63v36.65c0 10.72-6.79 19.95-16.24 23.62v32zm7.44 253.3h-33.04c-33.79 0-64.53-13.84-86.82-36.11l-.07-.07C13.83 454 0 423.27 0 389.49v-182.5c0-33.81 13.84-64.55 36.11-86.83 22.32-22.31 53.06-36.15 86.87-36.15h33.04c33.81 0 64.55 13.84 86.83 36.11 22.31 22.32 36.15 53.06 36.15 86.87v182.5c0 33.8-13.85 64.55-36.14 86.85-22.25 22.29-53.01 36.13-86.84 36.13zm-25.59-213c0-5.01 4.07-9.08 9.08-9.08s9.08 4.07 9.08 9.08v33.39l9.46-9.92c3.45-3.62 9.19-3.77 12.8-.33 3.62 3.44 3.77 9.18.33 12.8l-24.69 25.88c-1.67 2-4.18 3.27-6.98 3.27-2.8 0-5.31-1.27-6.98-3.27l-24.71-25.88c-3.44-3.62-3.29-9.36.33-12.8 3.61-3.44 9.35-3.29 12.8.33l9.48 9.93v-33.4z"/></svg>