<svg fill="#ffffff" id="Layer_1" data-name="Layer 1" xmlns="http://www.w3.org/2000/svg" viewBox="0 0 122.88 122.88"><title>move-arrows</title><path d="M30.73,70.08h0V81.63A4.43,4.43,0,0,1,29,85.39a4.85,4.85,0,0,1-4.36.19,1.53,1.53,0,0,1-.52-.28C15.43,78.51,10.42,71.73,1.76,64.93l-.12-.1a4.32,4.32,0,0,1,0-6.78l.12-.1c8.66-6.8,13.67-13.59,22.33-20.37a1.75,1.75,0,0,1,.52-.29,4.82,4.82,0,0,1,4.35.2,4.41,4.41,0,0,1,1.77,3.76V52.8H52.88V30.73H41.25A4.43,4.43,0,0,1,37.49,29a4.85,4.85,0,0,1-.2-4.36,1.75,1.75,0,0,1,.29-.52C44.37,15.43,51.15,10.42,58,1.76l.1-.12a4.32,4.32,0,0,1,6.78,0l.1.12c6.8,8.66,13.58,13.67,20.37,22.33a1.53,1.53,0,0,1,.28.52A4.82,4.82,0,0,1,85.39,29a4.41,4.41,0,0,1-3.76,1.77H70V52.8H92.15V41.25a4.43,4.43,0,0,1,1.76-3.76,4.85,4.85,0,0,1,4.36-.2,1.88,1.88,0,0,1,.52.29c8.66,6.78,13.67,13.57,22.33,20.37l.12.1a4.32,4.32,0,0,1,0,6.78l-.12.1c-8.66,6.8-13.67,13.58-22.33,20.37a1.63,1.63,0,0,1-.52.28,4.85,4.85,0,0,1-4.36-.19,4.43,4.43,0,0,1-1.76-3.76V70.08H70V92.15H81.63a4.43,4.43,0,0,1,3.76,1.76,4.85,4.85,0,0,1,.19,4.36,1.63,1.63,0,0,1-.28.52c-6.79,8.66-13.57,13.67-20.37,22.33l-.1.12a4.32,4.32,0,0,1-6.78,0l-.1-.12c-6.8-8.66-13.58-13.67-20.37-22.33a1.88,1.88,0,0,1-.29-.52,4.85,4.85,0,0,1,.2-4.36,4.43,4.43,0,0,1,3.76-1.76H52.88V70.08Z"/></svg>