<?xml version="1.0" encoding="UTF-8" standalone="no"?>
<!-- Creator: CorelDRAW 2021 (64-Bit) -->

<svg
   xml:space="preserve"
   width="512"
   height="512"
   version="1.1"
   shape-rendering="geometricPrecision"
   text-rendering="geometricPrecision"
   image-rendering="optimizeQuality"
   fill-rule="evenodd"
   clip-rule="evenodd"
   viewBox="0 0 512 511.93519"
   id="svg595"
   sodipodi:docname="roll.svg"
   inkscape:version="1.2 (dc2aedaf03, 2022-05-15)"
   xmlns:inkscape="http://www.inkscape.org/namespaces/inkscape"
   xmlns:sodipodi="http://sodipodi.sourceforge.net/DTD/sodipodi-0.dtd"
   xmlns="http://www.w3.org/2000/svg"
   xmlns:svg="http://www.w3.org/2000/svg"><defs
   id="defs599" /><sodipodi:namedview
   id="namedview597"
   pagecolor="#505050"
   bordercolor="#eeeeee"
   borderopacity="1"
   inkscape:showpageshadow="0"
   inkscape:pageopacity="0"
   inkscape:pagecheckerboard="0"
   inkscape:deskcolor="#505050"
   showgrid="false"
   inkscape:zoom="1.2792969"
   inkscape:cx="208.70839"
   inkscape:cy="233.33129"
   inkscape:window-width="1920"
   inkscape:window-height="1001"
   inkscape:window-x="-9"
   inkscape:window-y="-9"
   inkscape:window-maximized="1"
   inkscape:current-layer="Layer_x0020_1" />
 <g
   id="Layer_x0020_1"
   inkscape:label="Layer 1"
   inkscape:groupmode="layer">
  <metadata
   id="CorelCorpID_0Corel-Layer" />
  <path
   fill="#000000"
   fill-rule="nonzero"
   d="m 396.26087,232.4755 c -3.54742,-17.45602 -10.88051,-34.02432 -21.46982,-48.66381 -15.31037,-21.16836 -37.47731,-38.28543 -64.87714,-48.1231 -10.37752,-3.72848 -20.54326,-6.3836 -30.40013,-8.02187 -33.91226,-5.64112 -66.81852,-0.41158 -94.28895,13.54194 -27.43512,13.92931 -49.64619,36.63909 -62.23864,65.9665 -3.80333,8.8531 -6.72421,18.11779 -8.63028,27.72142 -1.61487,8.11064 -2.37377,16.25356 -2.28553,24.31577 0.0882,7.98958 1.02363,15.9953 2.78852,23.88804 l -53.14949,9.91838 c -2.435541,-10.90295 -3.73273,-22.09644 -3.856272,-33.41905 -0.114718,-11.12085 0.926564,-22.33047 3.132669,-33.45132 2.629678,-13.2272 6.48595,-25.60701 11.401153,-37.05875 17.348812,-40.39177 48.21664,-71.81745 86.47933,-91.242626 38.20974,-19.392891 83.65551,-26.728779 130.21316,-18.989377 13.71315,2.28389 27.31158,5.786393 40.60116,10.555931 38.21857,13.727552 69.10404,37.542962 90.39737,66.983352 15.20448,21.02309 25.52905,44.94341 30.12658,70.1227 l 9.4686,-10.62856 c 9.79511,-11.02401 27.5322,-12.69456 39.59518,-3.72847 12.05416,8.96608 13.88082,25.17928 4.07688,36.21136 l -48.32253,54.32108 c -9.08033,11.58893 -26.71152,14.25212 -39.38339,5.95587 l -65.83901,-43.11146 c -12.67187,-8.29625 -15.58393,-24.42875 -6.51242,-36.01767 9.08033,-11.58086 26.71152,-14.24406 39.38339,-5.9478 z"
   id="path592"
   style="fill:#ffffff;fill-opacity:1;stroke-width:0.843893"
   sodipodi:nodetypes="ccccccccccccccccccccccccccc" /><path
   fill="#000000"
   fill-rule="nonzero"
   d="m 114.95644,234.71894 c -3.1224,-15.57502 -25.918106,-40.67854 -53.943685,-5.95587 l -9.4686,-10.62856 c -9.79511,-11.02401 -27.5322,-12.69456 -39.59518,-3.72847 -12.05415993,8.96608 -13.8808199,25.17928 -4.0768801,36.21136 l 48.3225301,54.32108 c 9.08033,11.58893 26.71152,14.25212 39.38339,5.95587 l 65.839005,-43.11146 c 12.67187,-8.29625 15.58393,-24.42875 6.51242,-36.01767 -9.08033,-11.58086 -26.71152,-14.24406 -39.38339,-5.9478 z"
   id="path592-6"
   style="fill:#ffffff;fill-opacity:1;stroke-width:0.843893"
   sodipodi:nodetypes="ccccccccccc" />
 </g>
</svg>
