<?xml version="1.0" encoding="utf-8"?><svg fill="#ffffff" version="1.1" id="Layer_1" xmlns="http://www.w3.org/2000/svg" xmlns:xlink="http://www.w3.org/1999/xlink" x="0px" y="0px" viewBox="0 -50 122.88 123" style="enable-background:new 0 0 122.88 45.59" xml:space="preserve"><style type="text/css"><![CDATA[
	.st0{fill-rule:evenodd;clip-rule:evenodd;}
]]></style><g><path class="st0" d="M105.14,8.16c15.07,5.35,14.31,14.26-6.59,19.42c-4.28,1.06-8.52,2.04-13.64,2.64v6.07 c5.9-0.73,10.92-2.08,15.85-3.28c30.37-7.36,26.92-20.93,5.06-27.4C92.61,1.71,76.16,0.04,62.46,0 C49.59-0.04,35.04,1.16,22.43,4.38c-58.73,15,13.09,35.33,42.34,34.21v7l10.17-10.18v-2.16L64.77,23.09v7.47 c-14.93,0.13-86.53-8.93-41.68-23.5C33.44,3.7,51.73,2.71,62.72,2.73C74.93,2.75,93.62,4.07,105.14,8.16L105.14,8.16z"/></g></svg>
